<?xml version="1.0" encoding="UTF-8" standalone="no"?>
<svg
   xmlns:dc="http://purl.org/dc/elements/1.1/"
   xmlns:cc="http://creativecommons.org/ns#"
   xmlns:rdf="http://www.w3.org/1999/02/22-rdf-syntax-ns#"
   xmlns:svg="http://www.w3.org/2000/svg"
   xmlns="http://www.w3.org/2000/svg"
   xmlns:sodipodi="http://sodipodi.sourceforge.net/DTD/sodipodi-0.dtd"
   xmlns:inkscape="http://www.inkscape.org/namespaces/inkscape"
   height="492pt"
   viewBox="-6 0 492 492.00059"
   width="492pt"
   version="1.1"
   id="svg24"
   sodipodi:docname="data-analysis-python.svg"
   inkscape:version="0.92.2 (5c3e80d, 2017-08-06)">
  <metadata
     id="metadata30">
    <rdf:RDF>
      <cc:Work
         rdf:about="">
        <dc:format>image/svg+xml</dc:format>
        <dc:type
           rdf:resource="http://purl.org/dc/dcmitype/StillImage" />
        <dc:title />
      </cc:Work>
    </rdf:RDF>
  </metadata>
  <defs
     id="defs28" />
  <sodipodi:namedview
     pagecolor="#ffffff"
     bordercolor="#666666"
     borderopacity="1"
     objecttolerance="10"
     gridtolerance="10"
     guidetolerance="10"
     inkscape:pageopacity="0"
     inkscape:pageshadow="2"
     inkscape:window-width="1920"
     inkscape:window-height="1001"
     id="namedview26"
     showgrid="false"
     inkscape:zoom="0.3597561"
     inkscape:cx="-81.063696"
     inkscape:cy="380.86861"
     inkscape:window-x="-9"
     inkscape:window-y="-9"
     inkscape:window-maximized="1"
     inkscape:current-layer="svg24" />
  <path
     style="stroke-width:1.3333317;fill:#8b0000;fill-opacity:1"
     d="M 399.18164,0 C 378.68687,0 360.0052,11.750023 351.125,30.21875 H 182.59961 c -18.31769,0.02084 -33.16667,14.864605 -33.1875,33.1875 0,0 0.0869,160.09663 -0.0869,148.89113 0,11.11864 16.08686,-7.12289 16.08686,-9.38136 V 63.40625 c 0.0104,-9.489573 7.69793,-17.177083 17.1875,-17.1875 h 163.73437 c -0.32291,2.359373 -0.48437,4.735029 -0.48437,7.115234 V 68 h -75.10938 c -4.41666,0 -8,3.583339 -8,8 v 23.578125 h -34.32812 c -11.36457,0.01042 -20.57813,9.223325 -20.59375,20.587895 v 82.75 h 16 v -82.75 c 0.005,-2.53125 2.0625,-4.58263 4.59375,-4.5879 h 34.32812 v 20.85938 c 0,4.41666 3.58334,8 8,8 h 256.875 c 4.4199,0 7.99681,-3.58019 8,-7.99414 v -20.86524 h 34.32813 c 2.53645,0 4.59375,2.05665 4.59375,4.5879 v 342.52539 h -40.24609 c -18.31769,0.026 -33.16081,14.86981 -33.18164,33.1875 v 39.17187 H 342 v 16 h 162.22852 c 1.01562,-0.005 2.0319,-0.0781 3.0371,-0.21875 2.86464,0.69271 5.87566,-0.25911 7.81836,-2.47265 2.02084,-1.07819 3.8685,-2.45443 5.48829,-4.07422 l 63.19921,-63.20313 c 4.34896,-4.32291 6.78516,-10.20769 6.76954,-16.33789 V 120.16602 c -0.0156,-11.36457 -9.22398,-20.577479 -20.59375,-20.587895 H 535.61523 V 76 c 0,-4.416661 -3.57813,-8 -8,-8 H 452.50977 V 53.333984 c -0.005,-2.380205 -0.16537,-4.755211 -0.48829,-7.109375 h 163.73243 c 9.48436,0.01042 17.17317,7.697276 17.18359,17.181641 l 0.004,523.82227 c -0.0104,9.48436 -7.69793,17.17122 -17.1875,17.18164 0,0 -276.64085,0 -275.28956,0 -1.1056,0 -20.20797,16.30711 -9.15194,16.06142 -11.11746,0 284.44727,-0.0614 284.44727,-0.0614 18.31768,-0.0208 33.1608,-14.86396 33.18164,-33.18164 V 63.40625 C 648.92057,45.083355 634.07745,30.239585 615.75977,30.21875 H 447.24414 C 438.36394,11.750023 419.68162,0 399.18164,0 Z m 0,16 c 20.61456,0 37.33399,16.714217 37.33398,37.333984 V 76 c 0,4.416661 3.57813,8 8,8 h 75.10352 v 44.44336 H 278.74023 V 84 h 75.10938 c 4.41666,0 8,-3.583339 8,-8 V 53.333984 C 361.84961,32.714217 378.56187,16 399.18164,16 Z m 135.11524,462.69141 29.24023,0.006 -46.42773,46.42773 v -29.24609 c 0.0104,-9.48958 7.69786,-17.17709 17.1875,-17.1875 z"
     transform="matrix(0.7500009,0,0,0.7500009,-6.000295,0)"
     id="path6"
     inkscape:connector-curvature="0"
     sodipodi:nodetypes="sccccccccscssccccccccsssccsscccccccccccccccssccccccccccccccsssssccccsssscccccc" />
  <path
     d="m 368.31152,141.03465 c 0,0.0547 0.008,0.10938 0.008,0.16407 l -20.6914,18.96484 c -7.28125,-6.35156 -17.90235,-7.06641 -25.96875,-1.74609 -8.06641,5.3164 -11.59375,15.35937 -8.625,24.55468 l -18.92188,15.96094 c -3.88281,-4.96094 -9.74609,-7.96484 -16.03906,-8.21484 -6.28906,-0.25 -12.375,2.27734 -16.63672,6.91406 L 242.0578,184.14403 c 0,0 5.52802,1.84267 0.0554,12.65517 l 13.91729,11.69639 c -1.41406,8.01563 1.8125,16.14063 8.33984,21.00391 6.52735,4.85937 15.23829,5.62109 22.51172,1.96875 7.27344,-3.65235 11.86328,-11.09375 11.86328,-19.23438 0,-0.48828 -0.043,-0.96484 -0.0742,-1.44531 L 319.8,192.96825 c 7.26563,6.05078 17.63672,6.64453 25.54688,1.46093 7.91015,-5.18359 11.5039,-14.92578 8.85156,-24.0039 L 372.45996,153.687 c 6.24219,8.52734 17.7539,11.2539 27.15625,6.42968 9.40234,-4.82812 13.89844,-15.76953 10.60937,-25.8125 -3.29297,-10.04296 -13.39843,-16.19921 -23.83203,-14.52343 -10.43359,1.67578 -18.09765,10.6914 -18.07812,21.25781 z m -91.09766,80.72657 c -5.26171,0 -9.52734,-4.26563 -9.52734,-9.53125 0,-5.26172 4.26563,-9.52735 9.52734,-9.52735 5.26172,0 9.53125,4.26563 9.53125,9.52735 -0.008,5.26171 -4.26953,9.52343 -9.53125,9.53125 z m 56.31641,-35.83594 c -5.26562,0 -9.53125,-4.26953 -9.53125,-9.53125 0,-5.26172 4.26563,-9.52735 9.53125,-9.52735 5.26172,0 9.52734,4.26563 9.52734,9.52735 -0.008,5.26172 -4.26953,9.52344 -9.52734,9.53125 z m 65.83984,-44.89063 c 0,5.26172 -4.26562,9.53125 -9.52734,9.53125 -5.26562,0 -9.53125,-4.26562 -9.53125,-9.53125 0,-5.26172 4.26563,-9.52734 9.53125,-9.52734 5.25781,0.004 9.52344,4.26562 9.52734,9.52734 z"
     id="path8"
     inkscape:connector-curvature="0"
     sodipodi:nodetypes="ccccccccccccssccsccccscccsscccsscccsscc"
     style="fill:#8b0000;fill-opacity:1" />
  <path
     d="m391.605469 210.039062h-27.5c-3.3125 0-6 2.6875-6 6v116.410157c0 3.3125 2.6875 6 6 6h27.5c3.3125 0 6-2.6875 6-6v-116.410157c0-3.3125-2.6875-6-6-6zm-6 116.410157h-15.5v-104.410157h15.5zm0 0"
     id="path10"
     style="fill:#8b0000;fill-opacity:1" />
  <path
     inkscape:connector-curvature="0"
     d="m 168.68529,142.99156 c -61.5737,0 -84.156199,30.28472 -84.156199,52.67985 v 37.4875 h 78.144969 v 12.0223 H 47.041574 c -13.30972,0 -26.96472,5.0439 -36.841754,16.85941 -9.87711506,11.81545 -15.8380078,29.85473 -15.8380078,55.27442 0,25.4197 5.96089274,43.45899 15.8380078,55.27441 9.877034,11.81552 23.532034,16.85942 36.841754,16.85942 h 37.487517 v 49.50981 c 0,22.39513 22.582499,52.67985 84.156199,52.67985 61.57371,0 84.15615,-30.28472 84.15615,-52.67985 v -37.48751 h -78.145 v -12.0223 h 115.6325 c 13.30973,0 26.96473,-5.0439 36.84176,-16.85942 9.8771,-11.81542 15.83801,-29.85471 15.83801,-55.27441 0,-25.41969 -5.96091,-43.45897 -15.83801,-55.27442 -9.87703,-11.81551 -23.53203,-16.85941 -36.84176,-16.85941 h -37.47581 v -49.5098 c -0.003,-11.49797 -5.63317,-24.95974 -19.05485,-35.2686 -13.42169,-10.30888 -34.35178,-17.41125 -65.11299,-17.41125 z m 0,12.02238 c 28.91146,0 47.05278,6.67757 57.78685,14.92223 10.73414,8.24455 14.3563,18.10564 14.35869,25.73524 v 49.5098 h -0.008 v 41.52628 c 0,4.93556 -1.77681,9.63402 -4.71971,13.57205 -3.92656,5.25068 -9.91967,9.15424 -16.49538,10.5078 -1.64361,0.33822 -3.3192,0.51695 -5.01322,0.51695 h -91.8105 c -20.11017,0 -38.250685,16.11783 -38.250685,36.61872 v 29.50397 H 47.045581 c -10.410264,0 -20.085484,-3.54497 -27.613763,-12.55063 -7.528199,-9.00565 -13.0437063,-24.01974 -13.0437063,-47.56091 0,-23.54117 5.5155073,-38.55525 13.0437063,-47.56091 7.528279,-9.00567 17.203499,-12.55062 27.613763,-12.55062 H 174.70046 V 221.13702 H 96.555461 v -25.46523 c 0,-14.33305 14.362079,-40.65746 72.133859,-40.65746 z m -33.06138,24.04456 a 15.027884,15.027884 0 0 0 -15.02787,15.02789 15.027884,15.027884 0 0 0 15.02787,15.02787 15.027884,15.027884 0 0 0 15.02787,-15.02787 15.027884,15.027884 0 0 0 -15.02787,-15.02789 z m 117.22922,78.14501 h 37.47581 c 10.41026,0 20.08548,3.54498 27.61377,12.55063 7.5282,9.00565 13.0437,24.01973 13.0437,47.5609 0,23.54117 -5.5155,38.55525 -13.0437,47.56092 -7.52829,9.00565 -17.20351,12.55063 -27.61377,12.55063 H 162.67406 v 36.06686 h 78.14508 v 25.46523 c 0,14.33306 -14.36216,40.65746 -72.13385,40.65746 -57.77176,0 -72.133834,-26.3244 -72.133834,-40.65746 V 347.9226 c 0,-1.64521 0.201985,-3.26478 0.575464,-4.83705 2.611573,-11.00593 13.79487,-19.75935 25.65309,-19.75935 h 91.81097 c 1.25688,0 2.5077,-0.0641 3.74527,-0.18755 7.42255,-0.73817 14.42338,-3.64613 20.15851,-8.08924 0,0 0.008,0 0.008,0 0.95311,-0.73978 1.86834,-1.52612 2.74724,-2.34813 0,0 0.0165,0 0.0165,0 7.05186,-6.59206 11.58789,-15.74303 11.58789,-25.99348 z M 70.323067,269.63672 a 6.0117547,6.0117547 0 0 0 -5.91722,6.09337 v 12.02229 a 6.0117547,6.0117547 0 1 0 12.0223,0 v -12.02229 a 6.0117547,6.0117547 0 0 0 -6.10508,-6.09337 z m 27.437592,0 a 6.0117547,6.0117547 0 0 0 -5.917203,6.09337 v 12.02229 a 6.0117547,6.0117547 0 1 0 12.022284,0 v -12.02229 a 6.0117547,6.0117547 0 0 0 -6.105081,-6.09337 z m 27.449381,0 a 6.0117547,6.0117547 0 0 0 -5.91721,6.09337 v 12.02229 a 6.0117547,6.0117547 0 1 0 12.02229,0 v -12.02229 a 6.0117547,6.0117547 0 0 0 -6.10508,-6.09337 z m 27.43767,0 a 6.0117547,6.0117547 0 0 0 -5.91729,6.09337 v 12.02229 a 6.0117547,6.0117547 0 1 0 12.02237,0 v -12.02229 a 6.0117547,6.0117547 0 0 0 -6.10508,-6.09337 z m 49.92073,71.64077 a 6.0117547,6.0117547 0 0 0 -5.91721,6.09337 v 12.02229 a 6.0117547,6.0117547 0 1 0 12.0223,0 v -12.02229 a 6.0117547,6.0117547 0 0 0 -6.10509,-6.09337 z m 27.4376,0 a 6.0117547,6.0117547 0 0 0 -5.91721,6.09337 v 12.02229 a 6.0117547,6.0117547 0 1 0 12.02229,0 v -12.02229 a 6.0117547,6.0117547 0 0 0 -6.10508,-6.09337 z m 27.4494,0 a 6.0117547,6.0117547 0 0 0 -5.91722,6.09337 v 12.02229 a 6.0117547,6.0117547 0 1 0 12.02228,0 v -12.02229 a 6.0117547,6.0117547 0 0 0 -6.10506,-6.09337 z m 27.43767,0 a 6.0117547,6.0117547 0 0 0 -5.9173,6.09337 v 12.02229 a 6.0117547,6.0117547 0 1 0 12.02238,0 v -12.02229 a 6.0117547,6.0117547 0 0 0 -6.10508,-6.09337 z m -77.13535,84.23835 a 15.027884,15.027884 0 0 0 -15.02787,15.02787 15.027884,15.027884 0 0 0 15.02787,15.02785 15.027884,15.027884 0 0 0 15.02786,-15.02785 15.027884,15.027884 0 0 0 -15.02786,-15.02787 z"
     id="path2"
     style="stroke-width:0.75000095;fill:#8b0000;fill-opacity:1" />
</svg>
