<?xml version="1.0" encoding="UTF-8" standalone="no"?>
<svg
   xmlns:dc="http://purl.org/dc/elements/1.1/"
   xmlns:cc="http://creativecommons.org/ns#"
   xmlns:rdf="http://www.w3.org/1999/02/22-rdf-syntax-ns#"
   xmlns:svg="http://www.w3.org/2000/svg"
   xmlns="http://www.w3.org/2000/svg"
   xmlns:sodipodi="http://sodipodi.sourceforge.net/DTD/sodipodi-0.dtd"
   xmlns:inkscape="http://www.inkscape.org/namespaces/inkscape"
   height="460pt"
   viewBox="0 -26 460.01844 460"
   width="460pt"
   version="1.1"
   id="svg12"
   sodipodi:docname="deep-learning.svg"
   inkscape:version="0.92.2 (5c3e80d, 2017-08-06)">
  <metadata
     id="metadata18">
    <rdf:RDF>
      <cc:Work
         rdf:about="">
        <dc:format>image/svg+xml</dc:format>
        <dc:type
           rdf:resource="http://purl.org/dc/dcmitype/StillImage" />
        <dc:title />
      </cc:Work>
    </rdf:RDF>
  </metadata>
  <defs
     id="defs16" />
  <sodipodi:namedview
     pagecolor="#ffffff"
     bordercolor="#666666"
     borderopacity="1"
     objecttolerance="10"
     gridtolerance="10"
     guidetolerance="10"
     inkscape:pageopacity="0"
     inkscape:pageshadow="2"
     inkscape:window-width="1920"
     inkscape:window-height="1001"
     id="namedview14"
     showgrid="false"
     inkscape:zoom="0.38478261"
     inkscape:cx="-150.73446"
     inkscape:cy="306.66667"
     inkscape:window-x="-9"
     inkscape:window-y="-9"
     inkscape:window-maximized="1"
     inkscape:current-layer="svg12" />
  <path
     d="m401.554688 85.6875c-4.96875 4.949219-8.289063 11.3125-9.5 18.21875h-56.175782c-19.195312.019531-34.75 15.574219-34.773437 34.769531-.015625 12.570313-10.199219 22.757813-22.769531 22.773438h-96.632813c-12.570313-.015625-22.753906-10.203125-22.769531-22.773438-.023438-19.195312-15.578125-34.75-34.773438-34.769531h-56.175781c-3.109375-17.46875-19.050781-29.671875-36.726563-28.109375-17.675781 1.558594-31.2304682 16.363281-31.2304682 34.109375s13.5546872 32.550781 31.2304682 34.109375c17.675782 1.5625 33.617188-10.640625 36.726563-28.109375h56.175781c12.570313.015625 22.753906 10.199219 22.769532 22.769531.023437 19.195313 15.578124 34.75 34.773437 34.773438h96.628906c19.195313-.023438 34.75-15.578125 34.773438-34.773438.015625-12.570312 10.203125-22.753906 22.769531-22.769531h56.179688c2.761718 15.527344 15.777343 27.160156 31.519531 28.175781 15.738281 1.011719 30.136719-8.859375 34.867187-23.90625 4.730469-15.046875-1.429687-31.378906-14.917968-39.558593-13.488282-8.175782-30.816407-6.082032-41.96875 5.070312zm-351.554688 39.949219c-7.476562 7.507812-19.203125 8.714843-28.050781 2.890625-8.851563-5.820313-12.378907-17.066406-8.445313-26.902344 3.9375-9.835938 14.25-15.542969 24.675782-13.65625 10.421874 1.890625 18.078124 10.855469 18.3125 21.445312-.015626.160157-.027344.324219-.027344.492188 0 .164062.011718.328125.027344.492188-.105469 5.730468-2.433594 11.195312-6.492188 15.238281zm391.503906 0c-8.695312 8.675781-22.769531 8.675781-31.464844 0-4.058593-4.042969-6.386718-9.507813-6.492187-15.238281.015625-.164063.027344-.324219.027344-.492188 0-.164062-.011719-.328125-.027344-.492188.222656-10.003906 7.097656-18.628906 16.800781-21.074218 9.703125-2.445313 19.84375 1.890625 24.78125 10.59375 4.933594 8.703125 3.453125 19.632812-3.625 26.703125zm0 0"
     id="path2"
     style="fill:#8b0000;fill-opacity:1" />
  <path
     d="m401.554688 273.328125c-4.96875 4.945313-8.289063 11.308594-9.5 18.214844h-56.175782c-12.570312-.015625-22.757812-10.199219-22.773437-22.769531-.019531-19.195313-15.574219-34.75-34.769531-34.773438h-96.632813c-19.195313.023438-34.75 15.578125-34.769531 34.773438-.015625 12.570312-10.203125 22.753906-22.773438 22.769531h-56.175781c-3.109375-17.476563-19.054687-29.683594-36.738281-28.125-17.683594 1.5625-31.246094 16.375-31.246094 34.125 0 17.753906 13.5625 32.566406 31.246094 34.125 17.683594 1.5625 33.628906-10.644531 36.738281-28.125h56.179687c19.191407-.019531 34.746094-15.574219 34.769532-34.769531.015625-12.570313 10.203125-22.757813 22.773437-22.773438h96.628907c12.570312.015625 22.757812 10.203125 22.773437 22.773438.019531 19.195312 15.574219 34.75 34.769531 34.769531h56.175782c2.765624 15.53125 15.78125 27.164062 31.519531 28.175781 15.742187 1.011719 30.136719-8.859375 34.867187-23.90625 4.730469-15.046875-1.425781-31.378906-14.914062-39.554688-13.488282-8.175781-30.816406-6.085937-41.972656 5.070313zm-383.019532 39.953125c-8.6875-8.691406-8.6875-22.777344 0-31.464844s22.773438-8.6875 31.464844 0c4.058594 4.042969 6.386719 9.507813 6.492188 15.238282-.015626.164062-.027344.328124-.027344.492187s.011718.328125.027344.492187c-.1875 8.90625-5.675782 16.84375-13.941407 20.164063-8.269531 3.320313-17.722656 1.382813-24.015625-4.925781zm422.96875 0c-6.292968 6.304688-15.746094 8.242188-24.015625 4.921875-8.265625-3.320313-13.753906-11.253906-13.941406-20.164063.015625-.160156.027344-.324218.027344-.488281 0-.167969-.011719-.332031-.027344-.492187.105469-5.730469 2.433594-11.195313 6.492187-15.242188 8.703126-8.609375 22.726563-8.574218 31.382813.082032s8.691406 22.679687.082031 31.382812zm0 0"
     id="path4"
     style="fill:#8b0000;fill-opacity:1" />
  <path
     d="m341.171875 348.957031c-5.753906 5.746094-9.265625 13.359375-9.898437 21.464844h-8.070313c-12.636719-.035156-23.929687-7.894531-28.347656-19.730469l-18.714844-50.527344c-6.175781-16.535156-21.949219-27.511718-39.601563-27.5625h-13.042968c-17.652344.050782-33.425782 11.027344-39.601563 27.5625l-18.714843 50.527344c-4.417969 11.839844-15.710938 19.699219-28.347657 19.734375h-8.070312c-1.4375-17.683593-16.140625-31.339843-33.882813-31.46875-17.742187-.128906-32.644531 13.308594-34.339844 30.96875-1.699218 17.660157 10.375 33.695313 27.816407 36.945313 17.4375 3.25 34.476562-7.359375 39.253906-24.445313h9.222656c17.652344-.046875 33.425781-11.027343 39.601563-27.5625l18.710937-50.527343c4.421875-11.835938 15.714844-19.695313 28.351563-19.730469h13.046875c12.632812.035156 23.925781 7.894531 28.347656 19.730469l18.714844 50.527343c6.175781 16.535157 21.949219 27.515625 39.597656 27.5625h9.222656c1.574219 5.664063 4.585938 10.820313 8.746094 14.972657 13.375 13.375 35.058594 13.375 48.433594 0s13.375-35.058594 0-48.433594-35.058594-13.375-48.433594 0zm-230.789063 39.949219c-7.636718 7.667969-19.671874 8.75-28.550781 2.566406-8.878906-6.183594-12.039062-17.851562-7.488281-27.671875 4.546875-9.816406 15.488281-14.953125 25.949219-12.183593 10.457031 2.773437 17.417969 12.65625 16.503906 23.4375-.097656.414062-.148437.835937-.15625 1.261718-.660156 4.765625-2.859375 9.1875-6.257813 12.589844zm270.738282 0c-8.6875 8.6875-22.773438 8.6875-31.464844 0-3.398438-3.402344-5.597656-7.824219-6.257812-12.589844-.007813-.425781-.058594-.847656-.15625-1.257812-.871094-10.265625 5.417968-19.785156 15.203124-23.007813 9.78125-3.222656 20.5.699219 25.898438 9.46875 5.394531 8.773438 4.0625 20.105469-3.222656 27.386719zm0 0"
     id="path6"
     style="fill:#8b0000;fill-opacity:1" />
  <path
     d="m99.832031 227.941406c4.96875-4.945312 8.289063-11.308594 9.5-18.214844h241.375c2.90625 16.34375 17.113281 28.246094 33.710938 28.25 18.136719 0 33.128906-14.132812 34.195312-32.238281 1.066407-18.101562-12.164062-33.898437-30.175781-36.023437-18.007812-2.125-34.554688 10.15625-37.730469 28.011718h-241.375c-2.90625-16.339843-17.113281-28.246093-33.710937-28.246093-15.503906-.003907-29.070313 10.410156-33.082032 25.382812-4.011718 14.972657 2.53125 30.773438 15.957032 38.523438 13.421875 7.75 30.378906 5.515625 41.339844-5.445313zm284.585938-46.460937c12.257812-.027344 22.226562 9.855469 22.3125 22.109375.082031 12.257812-9.75 22.273437-22.003907 22.417968-12.253906.144532-22.320312-9.636718-22.527343-21.890624.011719-.128907.019531-.257813.019531-.390626 0-.132812-.007812-.257812-.019531-.390624.1875-12.132813 10.085937-21.867188 22.21875-21.855469zm-324.535157 37.976562c-7.101562-7.078125-8.589843-18.035156-3.632812-26.753906s15.132812-13.042969 24.851562-10.558594c9.714844 2.484375 16.570313 11.164063 16.734376 21.191407-.011719.132812-.019532.257812-.019532.390624 0 .132813.007813.261719.019532.390626-.148438 8.921874-5.621094 16.894531-13.894532 20.238281-8.277344 3.34375-17.75 1.417969-24.058594-4.898438zm0 0"
     id="path8"
     style="fill:#8b0000;fill-opacity:1" />
  <path
     d="m70.433594 10.0625c-10.734375 10.714844-13.148438 27.214844-5.925782 40.550781 7.222657 13.335938 22.359376 20.335938 37.199219 17.199219 14.839844-3.136719 25.847657-15.660156 27.054688-30.78125h8.070312c12.636719.035156 23.925781 7.894531 28.347657 19.730469l18.714843 50.527343c6.175781 16.535157 21.949219 27.511719 39.601563 27.5625h13.046875c17.648437-.050781 33.421875-11.027343 39.597656-27.5625l18.714844-50.527343c4.421875-11.835938 15.714843-19.695313 28.347656-19.730469h8.070313c1.4375 17.683594 16.144531 31.339844 33.882812 31.472656 17.742188.128906 32.644531-13.3125 34.34375-30.972656 1.695312-17.660156-10.375-33.691406-27.816406-36.941406s-34.476563 7.355468-39.257813 24.441406h-9.222656c-17.648437.050781-33.421875 11.027344-39.597656 27.5625l-18.714844 50.53125c-4.421875 11.839844-15.710937 19.695312-28.347656 19.730469h-13.046875c-12.636719-.035157-23.925782-7.890625-28.347656-19.730469l-18.714844-50.523438c-6.175782-16.535156-21.949219-27.515624-39.601563-27.566406h-9.222656c-1.574219-5.660156-4.585937-10.816406-8.742187-14.96875-13.375-13.375-35.058594-13.375-48.433594 0zm279.222656 8.484375c7.636719-7.667969 19.671875-8.75 28.550781-2.566406 8.878907 6.1875 12.039063 17.851562 7.488281 27.671875-4.546874 9.820312-15.488281 14.957031-25.949218 12.183594-10.457032-2.773438-17.417969-12.65625-16.503906-23.4375.097656-.414063.148437-.835938.15625-1.257813.660156-4.769531 2.859374-9.1875 6.257812-12.59375zm-239.273438 0c3.398438 3.402344 5.597657 7.824219 6.257813 12.589844.007813.425781.058594.847656.15625 1.261719.894531 10.730468-6.042969 20.554687-16.457031 23.308593-10.410156 2.75-21.296875-2.363281-25.824219-12.136719-4.527344-9.773437-1.386719-21.382812 7.445313-27.546874 8.832031-6.160157 20.8125-5.097657 28.421874 2.523437zm0 0"
     id="path10"
     style="fill:#8b0000;fill-opacity:1" />
</svg>
