<?xml version="1.0" encoding="UTF-8" standalone="no"?>
<svg
   xmlns:dc="http://purl.org/dc/elements/1.1/"
   xmlns:cc="http://creativecommons.org/ns#"
   xmlns:rdf="http://www.w3.org/1999/02/22-rdf-syntax-ns#"
   xmlns:svg="http://www.w3.org/2000/svg"
   xmlns="http://www.w3.org/2000/svg"
   xmlns:sodipodi="http://sodipodi.sourceforge.net/DTD/sodipodi-0.dtd"
   xmlns:inkscape="http://www.inkscape.org/namespaces/inkscape"
   height="491pt"
   viewBox="0 0 491 491.99878"
   width="491pt"
   version="1.1"
   id="svg4"
   sodipodi:docname="machine-learning.svg"
   inkscape:version="0.92.2 (5c3e80d, 2017-08-06)">
  <metadata
     id="metadata10">
    <rdf:RDF>
      <cc:Work
         rdf:about="">
        <dc:format>image/svg+xml</dc:format>
        <dc:type
           rdf:resource="http://purl.org/dc/dcmitype/StillImage" />
        <dc:title />
      </cc:Work>
    </rdf:RDF>
  </metadata>
  <defs
     id="defs8" />
  <sodipodi:namedview
     pagecolor="#ffffff"
     bordercolor="#666666"
     borderopacity="1"
     objecttolerance="10"
     gridtolerance="10"
     guidetolerance="10"
     inkscape:pageopacity="0"
     inkscape:pageshadow="2"
     inkscape:window-width="1920"
     inkscape:window-height="1001"
     id="namedview6"
     showgrid="false"
     inkscape:zoom="0.3604888"
     inkscape:cx="-160.89266"
     inkscape:cy="327.33333"
     inkscape:window-x="-9"
     inkscape:window-y="-9"
     inkscape:window-maximized="1"
     inkscape:current-layer="svg4" />
  <path
     d="m460.355469 278.234375c-24.242188-9.945313-52.097657-.199219-64.851563 22.695313l-43.410156-17.878907c1.722656-11.390625-4.558594-22.484375-15.210938-26.871093-10.652343-4.386719-22.921874-.933594-29.722656 8.367187l-45.113281-18.582031 45.039063-18.761719c6.847656 9.25 19.121093 12.640625 29.742187 8.214844 10.625-4.425781 16.863281-15.527344 15.117187-26.902344l43.324219-18.046875c13.371094 23.925781 43.082031 33.273438 67.742188 21.3125 24.660156-11.960938 35.714843-41.078125 25.207031-66.390625-10.503906-25.3125-38.929688-38.042969-64.8125-29.023437-25.882812 9.019531-40.238281 36.660156-32.738281 63.019531l-43.34375 18.054687c-6.847657-9.257812-19.125-12.648437-29.753907-8.222656-10.628906 4.425781-16.867187 15.535156-15.113281 26.914062l-45.023437 18.753907 18.570312-45.085938c1.230469.1875 2.46875.28125 3.710938.28125 10.832031.015625 20.441406-6.941406 23.808594-17.238281 3.371093-10.292969-.265626-21.582031-9.007813-27.976562l17.890625-43.4375c19.070312 5.371093 39.535156-.636719 52.675781-15.460938 13.140625-14.828125 16.648438-35.863281 9.03125-54.152344-8.707031-20.910156-30.011719-33.714844-52.5625-31.589844-22.550781 2.128907-41.089843 18.691407-45.730469 40.859376-4.644531 22.171874 5.691407 44.777343 25.492188 55.773437l-17.878906 43.410156c-11.390625-1.71875-22.484375 4.558594-26.871094 15.210938-4.390625 10.652343-.933594 22.925781 8.363281 29.726562l-18.578125 45.109375-18.761718-45.035156c9.25-6.847656 12.640624-19.121094 8.214843-29.746094s-15.527343-16.859375-26.902343-15.113281l-18.054688-43.339844c23.953125-13.417969 33.285156-43.191406 21.277344-67.882812-12.011719-24.6875-41.191406-35.730469-66.535156-25.171875-25.347657 10.558594-38.0625 39.046875-28.992188 64.960937 9.070312 25.917969 36.777344 40.261719 63.175781 32.707031l18.054688 43.347657c-8.695313 6.429687-12.277344 17.710937-8.886719 27.980469 3.390625 10.265624 12.992188 17.195312 23.804688 17.179687 1.261718 0 2.523437-.097656 3.773437-.289063l18.753906 45.019532-45.085937-18.570313c1.71875-11.390625-4.558594-22.484375-15.210938-26.875-10.652344-4.386719-22.925781-.933593-29.726562 8.367188l-43.441406-17.890625c7.375-26.320313-7.050782-53.828125-32.902344-62.722656-25.847656-8.898438-54.148438 3.90625-64.53125 29.191406-10.386719 25.285156.746094 54.285156 25.382812 66.125 24.640625 11.839844 54.238282 2.414062 67.492188-21.492188l43.398437 17.875c-1.71875 11.390625 4.558594 22.484375 15.210938 26.871094 10.652343 4.386719 22.925781.933594 29.726562-8.367188l45.109375 18.582032-45.035156 18.761718c-6.847656-9.25-19.121094-12.640624-29.746094-8.214843-10.621094 4.425781-16.859375 15.527343-15.113281 26.902343l-43.335937 18.050782c-13.390626-23.878906-43.078126-33.175782-67.695313-21.195313-24.617187 11.976563-35.625 41.074219-25.097656 66.347657 10.527343 25.269531 38.933593 37.949218 64.777343 28.910156 25.839844-9.039063 40.148438-36.660156 32.628907-62.984375l43.351562-18.058594c6.84375 9.257813 19.121094 12.65625 29.75 8.226563 10.628907-4.425782 16.863281-15.535157 15.113281-26.914063l45.019532-18.753906-18.574219 45.089843c-11.390625-1.71875-22.484375 4.558594-26.871094 15.210938s-.933593 22.925781 8.363281 29.726562l-17.886718 43.429688c-26.355469-7.414062-53.917969 7.011719-62.847656 32.890625-8.933594 25.875 3.863281 54.230469 29.175781 64.652344 25.316406 10.421875 54.367187-.703125 66.246093-25.367188 11.875-24.667969 2.457032-54.316406-21.476562-67.605469l17.878906-43.410156c1.230469.1875 2.472656.28125 3.714844.28125 10.828125.011719 20.4375-6.945312 23.804688-17.238281 3.367187-10.292969-.269532-21.585937-9.011719-27.976563l18.582031-45.113281 18.761719 45.035157c-9.28125 6.835937-12.695313 19.125-8.261719 29.765624 4.433594 10.636719 15.558594 16.871094 26.945312 15.09375l18.054688 43.339844c-23.875 13.390625-33.167969 43.074219-21.1875 67.691406 11.976562 24.613282 41.074219 35.617188 66.34375 25.089844 25.269531-10.53125 37.945312-38.9375 28.902344-64.773437-9.039063-25.839844-36.660156-40.148438-62.980469-32.625l-18.058594-43.34375c9.257813-6.847657 12.652344-19.125 8.226563-29.753907-4.429688-10.628906-15.535156-16.867187-26.914063-15.113281l-18.753906-45.023437 45.085937 18.570312c-1.722656 11.390625 4.558594 22.488282 15.210938 26.875 10.652344 4.386719 22.921875.933594 29.722656-8.367187l43.433594 17.890625c-7.515625 26.722656 7.421875 54.613281 33.832031 63.160156 26.414063 8.550781 54.859375-5.296875 64.429688-31.355469 9.566406-26.0625-3.167969-55.027343-28.835938-65.597656zm-35.261719-149.675781c20.230469-8.429688 43.460938 1.140625 51.890625 21.371094 8.425781 20.230468-1.140625 43.464843-21.371094 51.890624-20.234375 8.429688-43.464843-1.140624-51.894531-21.371093-4.117188-9.707031-4.175781-20.660157-.160156-30.414063 4.015625-9.75 11.773437-17.484375 21.535156-21.476562zm-109.949219 78.800781c2.367188-5.75 8.46875-9.027344 14.570313-7.828125 6.101562 1.203125 10.503906 6.546875 10.515625 12.765625s-4.367188 11.578125-10.464844 12.804687c-6.097656 1.226563-12.210937-2.027343-14.601563-7.765624-1.339843-3.191407-1.34375-6.78125-.019531-9.972657zm-25.375-140.410156c-7.28125-17.476563-1.203125-37.660157 14.519531-48.210938 15.71875-10.546875 36.703126-8.523437 50.113282 4.835938 13.414062 13.359375 15.523437 34.332031 5.039062 50.09375-10.488281 15.765625-30.648437 21.925781-48.152344 14.714843-9.746093-3.984374-17.496093-11.699218-21.519531-21.433593zm-22.101562 93.121093c2.742187-6.65625 10.359375-9.828124 17.019531-7.085937 6.65625 2.738281 9.828125 10.359375 7.085938 17.015625-2.738282 6.65625-10.359376 9.828125-17.015626 7.089844-6.652343-2.746094-9.824218-10.359375-7.097656-17.019532zm-138.730469-92.796874c-8.425781-20.234376 1.144531-43.464844 21.375-51.894532 20.230469-8.425781 43.460938 1.144532 51.890625 21.375 8.425781 20.230469-1.140625 43.460938-21.371094 51.890625-9.710937 4.121094-20.667969 4.183594-30.417969.164063-9.753906-4.015625-17.492187-11.773438-21.484374-21.535156zm78.800781 109.949218c-5.75-2.371094-9.027343-8.46875-7.824219-14.570312 1.199219-6.101563 6.542969-10.507813 12.761719-10.519532 6.21875-.011718 11.582031 4.371094 12.808594 10.46875 1.222656 6.09375-2.027344 12.207032-7.769531 14.601563-3.1875 1.339844-6.78125 1.34375-9.976563.019531zm-140.414062 25.375c-17.476563 7.277344-37.660157 1.199219-48.210938-14.519531s-8.527343-36.703125 4.832031-50.117187c13.359376-13.414063 34.335938-15.523438 50.097657-5.035157 15.761719 10.484375 21.921875 30.644531 14.714843 48.152344-3.984374 9.746094-11.703124 17.496094-21.433593 21.519531zm93.121093 22.097656c-6.65625-2.742187-9.832031-10.359374-7.089843-17.015624 2.742187-6.65625 10.359375-9.832032 17.015625-7.089844 6.65625 2.742187 9.832031 10.359375 7.089844 17.015625-2.746094 6.65625-10.355469 9.828125-17.015626 7.097656zm-92.800781 138.730469c-20.230469 8.429688-43.464843-1.140625-51.890625-21.371093-8.429687-20.230469 1.140625-43.464844 21.371094-51.890626 20.230469-8.429687 43.464844 1.140626 51.890625 21.371094 4.125 9.707032 4.183594 20.664063.167969 30.417969-4.019532 9.753906-11.773438 17.488281-21.539063 21.480469zm109.949219-78.804687c-2.367188 5.75-8.46875 9.027344-14.570312 7.824218-6.101563-1.199218-10.503907-6.542968-10.515626-12.761718-.015624-6.21875 4.367188-11.582032 10.464844-12.804688 6.097656-1.226562 12.210938 2.027344 14.601563 7.765625 1.339843 3.191407 1.347656 6.789063.019531 9.984375zm25.375 140.421875c7.320312 17.515625 1.238281 37.765625-14.519531 48.351562-15.757813 10.585938-36.804688 8.5625-50.253907-4.835937-13.453124-13.394532-15.5625-34.429688-5.039062-50.230469 10.523438-15.804687 30.746094-21.964844 48.292969-14.71875 9.746093 3.984375 17.496093 11.699219 21.519531 21.433594zm22.101562-93.121094c-2.742187 6.652344-10.359374 9.828125-17.015624 7.085937-6.65625-2.742187-9.832032-10.359374-7.089844-17.015624 2.742187-6.65625 10.359375-9.828126 17.015625-7.089844 6.652343 2.75 9.824219 10.359375 7.097656 17.019531zm138.730469 92.796875c6.722657 16.140625 2.089844 34.777344-11.40625 45.890625-13.492187 11.117187-32.671875 12.089844-47.222656 2.398437-14.550781-9.691406-21.046875-27.761718-15.992187-44.496093 5.050781-16.738281 20.460937-28.195313 37.945312-28.214844 16.058594-.09375 30.570312 9.566406 36.683594 24.421875zm-78.796875-109.949219c6.152344 2.554688 9.363282 9.355469 7.425782 15.730469-1.933594 6.371094-8.390626 10.238281-14.921876 8.933594-6.53125-1.300782-11.011718-7.34375-10.359374-13.972656.65625-6.628907 6.230468-11.679688 12.890624-11.679688 1.703126 0 3.390626.335938 4.964844.988281zm47.339844-23.398437c-5.742188 2.390625-12.371094.394531-15.835938-4.769532-3.46875-5.164062-2.800781-12.058593 1.585938-16.464843 4.390625-4.402344 11.277344-5.097657 16.457031-1.652344 5.175781 3.445313 7.199219 10.066406 4.832031 15.816406-1.308593 3.203125-3.84375 5.75-7.039062 7.074219zm145.027344 49.765625c-7.210938 17.507812-25.785156 27.480469-44.359375 23.824219s-31.980469-19.925782-32.019531-38.855469c-.039063-18.933594 13.300781-35.253907 31.863281-38.988281 18.5625-3.730469 37.171875 6.171874 44.453125 23.648437 4.074218 9.710937 4.097656 20.644531.0625 30.371094zm0 0"
     id="path2"
     style="fill:#8b0000;fill-opacity:1" />
</svg>
