<?xml version="1.0" encoding="UTF-8" standalone="no"?>
<svg
   xmlns:dc="http://purl.org/dc/elements/1.1/"
   xmlns:cc="http://creativecommons.org/ns#"
   xmlns:rdf="http://www.w3.org/1999/02/22-rdf-syntax-ns#"
   xmlns:svg="http://www.w3.org/2000/svg"
   xmlns="http://www.w3.org/2000/svg"
   xmlns:sodipodi="http://sodipodi.sourceforge.net/DTD/sodipodi-0.dtd"
   xmlns:inkscape="http://www.inkscape.org/namespaces/inkscape"
   height="471pt"
   viewBox="-31 0 471 471.92665"
   width="471pt"
   version="1.1"
   id="svg10"
   sodipodi:docname="qualitative-methods.svg"
   inkscape:version="0.92.2 (5c3e80d, 2017-08-06)">
  <metadata
     id="metadata16">
    <rdf:RDF>
      <cc:Work
         rdf:about="">
        <dc:format>image/svg+xml</dc:format>
        <dc:type
           rdf:resource="http://purl.org/dc/dcmitype/StillImage" />
        <dc:title />
      </cc:Work>
    </rdf:RDF>
  </metadata>
  <defs
     id="defs14" />
  <sodipodi:namedview
     pagecolor="#ffffff"
     bordercolor="#666666"
     borderopacity="1"
     objecttolerance="10"
     gridtolerance="10"
     guidetolerance="10"
     inkscape:pageopacity="0"
     inkscape:pageshadow="2"
     inkscape:window-width="1920"
     inkscape:window-height="1001"
     id="namedview12"
     showgrid="false"
     inkscape:zoom="0.37579618"
     inkscape:cx="-623.79824"
     inkscape:cy="413.2206"
     inkscape:window-x="-9"
     inkscape:window-y="-9"
     inkscape:window-maximized="1"
     inkscape:current-layer="svg10" />
  <path
     inkscape:connector-curvature="0"
     d="m 159.15004,213.5496 c 0,2.23486 0.34833,4.45798 1.03718,6.58716 L 141.2242,236.1291 c -3.88652,-4.9707 -9.76135,-7.98052 -16.0667,-8.23101 -6.30534,-0.25049 -12.40326,2.28183 -16.67336,6.92767 L 89.071018,221.30702 c 1.97262,-10.58719 -4.13702,-21.01391 -14.33674,-24.466 -10.19972,-3.45209 -21.38574,1.11547 -26.24685,10.72418 -4.86502,9.60871 -1.92566,21.33095 6.89635,27.50322 8.82201,6.1762 20.84171,4.92764 28.20382,-2.92762 l 19.483572,13.5657 c -1.42076,8.0314 1.81215,16.17629 8.35233,21.04914 6.54019,4.87286 15.27218,5.63606 22.55993,1.97262 7.28775,-3.65952 11.88662,-11.11948 11.8827,-19.27613 0,-0.48924 -0.0391,-0.96674 -0.0743,-1.45207 l 21.17047,-17.85537 c 7.28382,6.06661 17.67141,6.66152 25.59713,1.46773 7.92572,-5.1938 11.52653,-14.95515 8.87289,-24.05113 l 18.29764,-16.77121 c 6.25057,8.54412 17.78884,11.27995 27.20968,6.44234 9.42085,-4.83371 13.9297,-15.79665 10.63025,-25.85938 -3.29553,-10.06272 -13.42088,-16.23499 -23.87501,-14.55592 -10.45411,1.67908 -18.13717,10.70853 -18.1176,21.29963 0,0.0548 0.008,0.10568 0.008,0.16048 l -20.73604,19.00607 c -6.36797,-5.55779 -15.39741,-6.87288 -23.0883,-3.3699 -7.69479,3.50297 -12.62635,11.1821 -12.61069,19.6362 z m -91.280802,13.41306 c -5.27208,0 -9.54609,-4.27401 -9.54609,-9.55 0,-5.27207 4.27401,-9.54608 9.54609,-9.54608 5.27207,0 9.54608,4.27401 9.54608,9.54608 -0.008,5.26815 -4.27793,9.53826 -9.54608,9.54608 z m 56.423282,32.03948 c -5.27206,0 -9.54609,-4.27402 -9.54609,-9.54609 0,-5.27599 4.27403,-9.55 9.54609,-9.55 5.27599,0 9.55,4.27401 9.55,9.55 -0.008,5.26815 -4.27793,9.53826 -9.54609,9.54218 z m 112.8505,-90.43147 c 5.27206,0 9.54999,4.27401 9.54999,9.54608 0,5.27207 -4.27793,9.55001 -9.54999,9.55001 -5.27208,0 -9.54609,-4.27794 -9.54609,-9.55001 0.004,-5.27207 4.27401,-9.54608 9.54609,-9.55 z m -56.42329,35.42893 c 5.27207,0 9.55,4.27403 9.55,9.5461 0,5.27598 -4.27402,9.55 -9.55,9.55 -5.27208,0 -9.55001,-4.27402 -9.55001,-9.5461 0.004,-5.27597 4.27793,-9.54608 9.55001,-9.5539 z m 0,0"
     id="path2-7"
     style="fill:#8b0000;fill-opacity:1;stroke-width:1.00196731" />
  <path
     inkscape:connector-curvature="0"
     d="m 250.92398,213.83533 h -27.5541 c -3.32293,0 -6.0118,2.69278 -6.0118,6.0118 V 336.4824 c 0,3.31901 2.68887,6.0118 6.0118,6.0118 h 27.5541 c 3.31902,0 6.0118,-2.69279 6.0118,-6.0118 V 219.84713 c 0,-3.31902 -2.69278,-6.0118 -6.0118,-6.0118 z m -6.0118,116.63527 H 229.38169 V 225.85894 h 15.53049 z m 0,0"
     id="path4"
     style="fill:#8b0000;fill-opacity:1;stroke-width:1.00196731" />
  <path
     inkscape:connector-curvature="0"
     d="m 194.49678,249.12337 h -27.55411 c -3.31901,0 -6.0118,2.69278 -6.0118,6.0118 v 81.34723 c 0,3.31901 2.69279,6.0118 6.0118,6.0118 h 27.55411 c 3.32293,0 6.0118,-2.69279 6.0118,-6.0118 v -81.34723 c 0,-3.31902 -2.68887,-6.0118 -6.0118,-6.0118 z m -6.01181,81.34723 h -15.53049 v -69.32362 h 15.53049 z m 0,0"
     id="path6"
     style="fill:#8b0000;fill-opacity:1;stroke-width:1.00196731" />
  <path
     inkscape:connector-curvature="0"
     d="M 138.07741,285.36249 H 110.5233 c -3.31901,0 -6.0118,2.68887 -6.0118,6.01181 v 45.1081 c 0,3.31901 2.69279,6.0118 6.0118,6.0118 h 27.55411 c 3.32292,0 6.0118,-2.69279 6.0118,-6.0118 v -45.1081 c 0,-3.32294 -2.68888,-6.01181 -6.0118,-6.01181 z m -6.01181,45.10811 h -15.5305 v -33.0845 h 15.5305 z m 0,0"
     id="path8"
     style="fill:#8b0000;fill-opacity:1;stroke-width:1.00196731" />
  <path
     inkscape:connector-curvature="0"
     d="m 81.646288,253.46783 h -27.55411 c -3.31901,0 -6.0118,2.6928 -6.0118,6.01181 v 77.00276 c 0,3.31901 2.69279,6.0118 6.0118,6.0118 h 27.55411 c 3.32293,0 6.01181,-2.69279 6.01181,-6.0118 v -77.00276 c 0,-3.31901 -2.68888,-6.01181 -6.01181,-6.01181 z m -6.01181,77.00277 h -15.53049 v -64.97916 h 15.53049 z m 0,0"
     id="path10"
     style="fill:#8b0000;fill-opacity:1;stroke-width:1.00196731" />
  <path
     inkscape:connector-curvature="0"
     d="m 117.16854,110.16197 h -4.17617 c -3.31901,0 -6.0118,2.69279 -6.0118,6.01181 0,3.31901 2.69279,6.0118 6.0118,6.0118 h 4.17617 c 3.31902,0 6.01181,-2.69279 6.01181,-6.0118 0,-3.31902 -2.69279,-6.01181 -6.01181,-6.01181 z m 0,0"
     id="path16"
     style="fill:#8b0000;fill-opacity:1;stroke-width:1.00196731" />
  <path
     inkscape:connector-curvature="0"
     d="m 39.261665,122.18558 h 45.85957 c 3.31902,0 6.01181,-2.69279 6.01181,-6.0118 0,-3.31902 -2.69279,-6.01181 -6.01181,-6.01181 h -45.85957 c -3.32294,0 -6.0118,2.69279 -6.0118,6.01181 0,3.31901 2.68886,6.0118 6.0118,6.0118 z m 0,0"
     id="path18"
     style="fill:#8b0000;fill-opacity:1;stroke-width:1.00196731" />
  <path
     inkscape:connector-curvature="0"
     d="m 70.941045,68.275047 h 46.227495 c 3.31902,0 6.01181,-2.69279 6.01181,-6.01181 0,-3.31901 -2.69279,-6.0118 -6.01181,-6.0118 H 70.941045 c -3.31901,0 -6.0118,2.69279 -6.0118,6.0118 0,3.31902 2.69279,6.01181 6.0118,6.01181 z m 0,0"
     id="path20"
     style="fill:#8b0000;fill-opacity:1;stroke-width:1.00196731" />
  <path
     inkscape:connector-curvature="0"
     d="m 39.261665,68.275047 h 3.80826 c 3.31902,0 6.0118,-2.69279 6.0118,-6.01181 0,-3.31901 -2.69278,-6.0118 -6.0118,-6.0118 h -3.80826 c -3.32294,0 -6.0118,2.69279 -6.0118,6.0118 0,3.31902 2.68886,6.01181 6.0118,6.01181 z m 0,0"
     id="path22"
     style="fill:#8b0000;fill-opacity:1;stroke-width:1.00196731" />
  <path
     inkscape:connector-curvature="0"
     d="m 90.190408,175.4631 c 0,3.31902 2.69279,6.01181 6.0118,6.01181 h 70.814832 c 3.31902,0 6.0118,-2.69279 6.0118,-6.01181 0,-3.31901 -2.69278,-6.0118 -6.0118,-6.0118 H 96.202208 c -3.31901,0 -6.0118,2.69279 -6.0118,6.0118 z m 0,0"
     id="path24"
     style="fill:#8b0000;fill-opacity:1;stroke-width:1.00196731" />
  <path
     inkscape:connector-curvature="0"
     d="m 74.198068,181.47491 c 3.31902,0 6.0118,-2.69279 6.0118,-6.01181 0,-3.31901 -2.69278,-6.0118 -6.0118,-6.0118 h -7.90224 c -3.31901,0 -6.0118,2.69279 -6.0118,6.0118 0,3.31902 2.69279,6.01181 6.0118,6.01181 z m 0,0"
     id="path26"
     style="fill:#8b0000;fill-opacity:1;stroke-width:1.00196731" />
  <path
     inkscape:connector-curvature="0"
     d="m 38.671278,181.47491 h 5.99615 c 3.31902,0 6.0118,-2.69279 6.0118,-6.01181 0,-3.31901 -2.69278,-6.0118 -6.0118,-6.0118 h -5.99615 c -3.31902,0 -6.0118,2.69279 -6.0118,6.0118 0,3.31902 2.69278,6.01181 6.0118,6.01181 z m 0,0"
     id="path28"
     style="fill:#8b0000;fill-opacity:1;stroke-width:1.00196731" />
  <path
     d="m48.613281 393.992188h.226563l141.246094-.800782c12.628906 32.84375 40.742187 57.269532 75.023437 65.1875 34.285156 7.917969 70.261719-1.703125 96.015625-25.679687l37.464844 37.46875c2.34375 2.34375 6.144531 2.34375 8.484375 0 2.34375-2.339844 2.34375-6.140625.003906-8.484375l-37.636719-37.632813c25.425782-29.617187 32.507813-70.8125 18.429688-107.21875s-47.03125-62.121093-85.769532-66.925781l-.773437-139.878906-.007813-1.722656c-.007812-1.59375-.648437-3.117188-1.78125-4.238282l-103.335937-102.132812c-.984375-.972656-2.273437-1.574219-3.648437-1.707032l-2.148438-.1992182c-.199219-.0195313-.402344-.0195313-.601562-.0273438l-142.855469.683594c-25.785157.152344-46.582031 21.148437-46.484375 46.929687l1.441406 299.894531c.152344 25.695313 21.011719 46.453126 46.707031 46.484376zm334.386719-38.898438c0 51.914062-42.082031 94-94 94-51.914062 0-94-42.085938-94-94 0-51.917969 42.085938-94 94-94 51.894531.058594 93.945312 42.109375 94 94.003906zm-102-252.480469-48.054688.230469h-.171874c-19.101563-.003906-34.609376-15.441406-34.703126-34.539062l-.230468-47.886719zm-258.488281-79.648437c6.464843-6.558594 15.28125-10.261719 24.492187-10.28125l138.792969-.667969.273437 56.347656c.125 25.707031 20.992188 46.480469 46.699219 46.484375h.230469l56.355469-.269531.742187 134.53125c-.363281 0-.730468-.011719-1.097656-.011719-32.714844.007813-63.589844 15.117188-83.667969 40.941406-20.082031 25.820313-27.121093 59.46875-19.070312 91.171876l-137.484375.78125c-19.164063.089843-34.777344-15.371094-34.871094-34.535157l-1.441406-299.902343c-.070313-9.207032 3.546875-18.0625 10.046875-24.589844zm0 0"
     id="path2"
     style="fill:#8b0000;fill-opacity:1" />
</svg>
