<?xml version="1.0" encoding="UTF-8" standalone="no"?>
<svg
   xmlns:dc="http://purl.org/dc/elements/1.1/"
   xmlns:cc="http://creativecommons.org/ns#"
   xmlns:rdf="http://www.w3.org/1999/02/22-rdf-syntax-ns#"
   xmlns:svg="http://www.w3.org/2000/svg"
   xmlns="http://www.w3.org/2000/svg"
   xmlns:sodipodi="http://sodipodi.sourceforge.net/DTD/sodipodi-0.dtd"
   xmlns:inkscape="http://www.inkscape.org/namespaces/inkscape"
   id="Layer_1"
   data-name="Layer 1"
   viewBox="0 0 512 512"
   width="512"
   height="512"
   version="1.1"
   sodipodi:docname="sql.svg"
   inkscape:version="0.92.2 (5c3e80d, 2017-08-06)">
  <metadata
     id="metadata17">
    <rdf:RDF>
      <cc:Work
         rdf:about="">
        <dc:format>image/svg+xml</dc:format>
        <dc:type
           rdf:resource="http://purl.org/dc/dcmitype/StillImage" />
        <dc:title>Server Customer Care</dc:title>
      </cc:Work>
    </rdf:RDF>
  </metadata>
  <defs
     id="defs15" />
  <sodipodi:namedview
     pagecolor="#ffffff"
     bordercolor="#666666"
     borderopacity="1"
     objecttolerance="10"
     gridtolerance="10"
     guidetolerance="10"
     inkscape:pageopacity="0"
     inkscape:pageshadow="2"
     inkscape:window-width="1920"
     inkscape:window-height="1001"
     id="namedview13"
     showgrid="false"
     inkscape:zoom="0.4609375"
     inkscape:cx="-125.83051"
     inkscape:cy="256"
     inkscape:window-x="-9"
     inkscape:window-y="-9"
     inkscape:window-maximized="1"
     inkscape:current-layer="Layer_1" />
  <title
     id="title2">Server Customer Care</title>
  <path
     d="M491.378,263.977a102.458,102.458,0,0,0-2.47-99.194A100.524,100.524,0,0,0,405.29,114.44q-1.41-.051-2.832-.067A109.939,109.939,0,0,0,291.429,218.24c-.112,1.806-.158,15.934-.171,20.843L271.7,290.305a10.62,10.62,0,0,0,9.922,14.409h24.646v19.893h-.462a20.114,20.114,0,0,0,.246,40.227l.231,0,41.688-.639a5.983,5.983,0,0,0,4.687-2.38c4.618-.022,9.527-.044,13.794-.061h.039a8.9,8.9,0,0,1,8.649,6.745l8.7,34.6a6,6,0,0,0,5.818,4.536H486.5a6,6,0,0,0,5.8-7.545c-.162-.608-16.129-61.138-12.606-98.984C480.5,292.412,488.3,271.619,491.378,263.977Zm-81,24.365h-.238a25.4,25.4,0,0,1-25.341-25l-.053-3.915a25.346,25.346,0,0,1,25.107-25.686h.239a25.4,25.4,0,0,1,25.341,25l.052,3.915a25.346,25.346,0,0,1-25.107,25.686ZM306.127,352.833h-.093a8.113,8.113,0,0,1-5.808-13.777,8.02,8.02,0,0,1,5.65-2.45h35.69l.229,15.68Zm12.144-28.226V298.714a6,6,0,0,0-6-6H283.629l19.231-50.378a6.011,6.011,0,0,0,.395-2.126c.021-9.382.082-20.015.153-21.279a97.7,97.7,0,0,1,97.8-92.565c.371,0,.744,0,1.116.007.494,0,.984.022,1.476.035V222.27a37.346,37.346,0,0,0-31.05,37.316l.053,3.915a37.44,37.44,0,0,0,30.257,36.158l.084,9.014a28.891,28.891,0,0,1-28.6,29.159l-20.956.129-.108-7.441a6,6,0,0,0-6-5.913Zm154.555,42.314c2.153,11.986,4.441,22.2,5.993,28.713H394.341l-7.562-30.065a20.865,20.865,0,0,0-18.167-15.7l6.024-.037a40.892,40.892,0,0,0,40.51-41.27l-.08-8.55a37.329,37.329,0,0,0,32.421-37.518l-.052-3.915a37.441,37.441,0,0,0-31.633-36.4V127.505a88.657,88.657,0,0,1,62.733,43.31,90.526,90.526,0,0,1,2.069,87.87c-.089.17-.17.346-.243.525-1.173,2.9-11.489,28.645-12.62,40.783C466.171,316.865,467.882,339.383,472.826,366.921Z"
     id="path4"
     style="fill:#8b0000;fill-opacity:1" />
  <path
     d="M247.44,33.682A122.691,122.691,0,0,1,356.5,64.068a6,6,0,1,0,8.191-8.769A134.494,134.494,0,0,0,168.153,69.048L144.678,53.774a6,6,0,0,0-9.142,6.272l9.737,46.005a6,6,0,0,0,7.113,4.628l46.005-9.738a6,6,0,0,0,2.029-10.9L178.271,75.631A122.3,122.3,0,0,1,247.44,33.682ZM155.771,97.7l-5.495-25.964,15.641,10.177.023.02c.043.031.09.052.133.082L181.734,92.2Z"
     id="path6"
     style="fill:#8b0000;fill-opacity:1" />
  <path
     d="M356.727,405.949a6,6,0,0,0-7.113-4.628l-46,9.738a6,6,0,0,0-2.03,10.9l22.15,14.411A122.494,122.494,0,0,1,145.5,447.932a6,6,0,1,0-8.191,8.769,134.492,134.492,0,0,0,196.535-13.749l23.475,15.274a6,6,0,0,0,9.143-6.272ZM336.082,430.09l-.022-.019a6.043,6.043,0,0,0-.6-.384l-15.2-9.888,25.963-5.5,5.5,25.964Z"
     id="path8"
     style="fill:#8b0000;fill-opacity:1" />
  <path
     d="M201,353.786V168.214c0-25.053-49.461-38.571-96-38.571S9,143.161,9,168.214V353.786c0,25.053,49.461,38.571,96,38.571S201,378.839,201,353.786ZM189,229.929c0,11.1-31.957,26.571-84,26.571s-84-15.476-84-26.571v-42.3c17.49,12.542,51.457,19.154,84,19.154s66.51-6.612,84-19.154ZM21,290.357V249.346C38.49,261.888,72.457,268.5,105,268.5s66.51-6.612,84-19.154v42.3c0,11.1-31.957,26.571-84,26.571s-84-15.476-84-26.571Zm84-148.714c52.043,0,84,15.475,84,26.571s-31.957,26.572-84,26.572S21,179.31,21,168.214,52.957,141.643,105,141.643Zm0,238.714c-52.043,0-84-15.475-84-26.571V311.06c17.49,12.542,51.457,19.154,84,19.154s66.51-6.612,84-19.154v42.726C189,364.882,157.043,380.357,105,380.357Z"
     id="path10"
     style="fill:#8b0000;fill-opacity:1" />
</svg>
