<?xml version="1.0" encoding="UTF-8" standalone="no"?>
<svg
   xmlns:dc="http://purl.org/dc/elements/1.1/"
   xmlns:cc="http://creativecommons.org/ns#"
   xmlns:rdf="http://www.w3.org/1999/02/22-rdf-syntax-ns#"
   xmlns:svg="http://www.w3.org/2000/svg"
   xmlns="http://www.w3.org/2000/svg"
   xmlns:sodipodi="http://sodipodi.sourceforge.net/DTD/sodipodi-0.dtd"
   xmlns:inkscape="http://www.inkscape.org/namespaces/inkscape"
   height="432pt"
   viewBox="-43 0 432 432"
   width="432pt"
   version="1.1"
   id="svg30"
   sodipodi:docname="statistical-modeling.svg"
   inkscape:version="0.92.2 (5c3e80d, 2017-08-06)">
  <metadata
     id="metadata36">
    <rdf:RDF>
      <cc:Work
         rdf:about="">
        <dc:format>image/svg+xml</dc:format>
        <dc:type
           rdf:resource="http://purl.org/dc/dcmitype/StillImage" />
        <dc:title />
      </cc:Work>
    </rdf:RDF>
  </metadata>
  <defs
     id="defs34" />
  <sodipodi:namedview
     pagecolor="#ffffff"
     bordercolor="#666666"
     borderopacity="1"
     objecttolerance="10"
     gridtolerance="10"
     guidetolerance="10"
     inkscape:pageopacity="0"
     inkscape:pageshadow="2"
     inkscape:window-width="1920"
     inkscape:window-height="1001"
     id="namedview32"
     showgrid="false"
     inkscape:zoom="0.40972222"
     inkscape:cx="-141.55932"
     inkscape:cy="288"
     inkscape:window-x="-9"
     inkscape:window-y="-9"
     inkscape:window-maximized="1"
     inkscape:current-layer="svg30" />
  <path
     d="m179.429688 251.101562c0 2.230469.347656 4.449219 1.035156 6.574219l-18.925782 15.960938c-3.878906-4.960938-9.742187-7.964844-16.035156-8.214844-6.292968-.25-12.378906 2.277344-16.640625 6.914063l-19.375-13.492188c1.96875-10.566406-4.128906-20.972656-14.308593-24.417969-10.179688-3.445312-21.34375 1.113281-26.195313 10.703125-4.855469 9.589844-1.921875 21.289063 6.882813 27.449219 8.804687 6.164063 20.800781 4.917969 28.148437-2.921875l19.445313 13.539062c-1.417969 8.015626 1.808593 16.144532 8.335937 21.007813s15.242187 5.625 22.515625 1.96875c7.273438-3.652344 11.863281-11.097656 11.859375-19.238281 0-.488282-.039063-.964844-.074219-1.449219l21.128906-17.820313c7.269532 6.054688 17.636719 6.648438 25.546876 1.464844 7.910156-5.183594 11.503906-14.925781 8.855468-24.003906l18.261719-16.738281c6.238281 8.527343 17.753906 11.257812 27.15625 6.429687 9.402344-4.824218 13.902344-15.765625 10.609375-25.808594-3.289062-10.042968-13.394531-16.203124-23.828125-14.527343s-18.101563 10.6875-18.082031 21.257812c0 .054688.007812.105469.007812.160157l-20.695312 18.96875c-6.355469-5.546876-15.367188-6.859376-23.042969-3.363282-7.679687 3.496094-12.601563 11.160156-12.585937 19.597656zm-91.101563 13.386719c-5.261719 0-9.527344-4.265625-9.527344-9.53125 0-5.261719 4.265625-9.527343 9.527344-9.527343s9.527344 4.265624 9.527344 9.527343c-.007813 5.257813-4.269531 9.519531-9.527344 9.527344zm56.3125 31.976563c-5.261719 0-9.527344-4.265625-9.527344-9.527344 0-5.265625 4.265625-9.53125 9.527344-9.53125 5.265625 0 9.53125 4.265625 9.53125 9.53125-.007813 5.257812-4.269531 9.519531-9.527344 9.523438zm112.628906-90.253906c5.261719 0 9.53125 4.265624 9.53125 9.527343s-4.269531 9.53125-9.53125 9.53125-9.527343-4.269531-9.527343-9.53125c.003906-5.261719 4.265624-9.527343 9.527343-9.53125zm-56.3125 35.359374c5.261719 0 9.53125 4.265626 9.53125 9.527344 0 5.265625-4.265625 9.53125-9.53125 9.53125-5.261719 0-9.53125-4.265625-9.53125-9.527344.003907-5.265624 4.269531-9.527343 9.53125-9.535156zm0 0"
     id="path2"
     style="fill:#8b0000;fill-opacity:1" />
  <path
     d="m271.023438 251.386719h-27.5c-3.316407 0-6 2.6875-6 6v116.40625c0 3.3125 2.683593 6 6 6h27.5c3.3125 0 6-2.6875 6-6v-116.40625c0-3.3125-2.6875-6-6-6zm-6 116.40625h-15.5v-104.40625h15.5zm0 0"
     id="path4"
     style="fill:#8b0000;fill-opacity:1" />
  <path
     d="m214.707031 286.605469h-27.5c-3.3125 0-6 2.6875-6 6v81.1875c0 3.3125 2.6875 6 6 6h27.5c3.316407 0 6-2.6875 6-6v-81.1875c0-3.3125-2.683593-6-6-6zm-6 81.1875h-15.5v-69.1875h15.5zm0 0"
     id="path6"
     style="fill:#8b0000;fill-opacity:1" />
  <path
     d="m158.398438 322.773438h-27.5c-3.3125 0-6 2.683593-6 6v45.019531c0 3.3125 2.6875 6 6 6h27.5c3.316406 0 6-2.6875 6-6v-45.019531c0-3.316407-2.683594-6-6-6zm-6 45.019531h-15.5v-33.019531h15.5zm0 0"
     id="path8"
     style="fill:#8b0000;fill-opacity:1" />
  <path
     d="m102.078125 290.941406h-27.5c-3.3125 0-6 2.6875-6 6v76.851563c0 3.3125 2.6875 6 6 6h27.5c3.316406 0 6-2.6875 6-6v-76.851563c0-3.3125-2.683594-6-6-6zm-6 76.851563h-15.5v-64.851563h15.5zm0 0"
     id="path10"
     style="fill:#8b0000;fill-opacity:1" />
  <path
     d="m27.523438 432h290.550781c15.195312-.015625 27.507812-12.328125 27.527343-27.523438v-357.132812c-.019531-15.191406-12.332031-27.503906-27.523437-27.523438h-36.425781v-13.820312c0-3.3125-2.6875-6-6-6h-194.941406c-3.316407 0-6 2.6875-6 6v13.820312h-47.1875c-15.191407.015626-27.507813 12.328126-27.523438 27.523438v357.132812c.015625 15.195313 12.332031 27.507813 27.523438 27.523438zm59.1875-420h182.941406v25.007812h-182.941406zm-74.710938 35.34375c.007812-8.570312 6.953125-15.511719 15.523438-15.523438h47.183593v11.1875c0 3.3125 2.683594 6 6 6h194.945313c3.3125 0 6-2.6875 6-6v-11.1875h36.421875c8.570312.007813 15.515625 6.953126 15.527343 15.523438v357.132812c-.011718 8.570313-6.957031 15.515626-15.527343 15.523438h-290.550781c-8.566407-.007812-15.515626-6.953125-15.523438-15.523438zm0 0"
     id="path12"
     style="fill:#8b0000;fill-opacity:1" />
  <path
     d="m59.1875 169.089844h98.09375c3.3125 0 6-2.6875 6-6v-53.804688c0-3.3125-2.6875-6-6-6h-98.09375c-3.3125 0-6 2.6875-6 6v53.804688c0 3.3125 2.6875 6 6 6zm6-53.804688h86.09375v41.804688h-86.09375zm0 0"
     id="path14"
     style="fill:#8b0000;fill-opacity:1" />
  <path
     d="m286.414062 157.089844h-4.167968c-3.3125 0-6 2.6875-6 6s2.6875 6 6 6h4.167968c3.3125 0 6-2.6875 6-6s-2.6875-6-6-6zm0 0"
     id="path16"
     style="fill:#8b0000;fill-opacity:1" />
  <path
     d="m208.660156 169.089844h45.769532c3.3125 0 6-2.6875 6-6s-2.6875-6-6-6h-45.769532c-3.316406 0-6 2.6875-6 6s2.683594 6 6 6zm0 0"
     id="path18"
     style="fill:#8b0000;fill-opacity:1" />
  <path
     d="m240.277344 115.285156h46.136718c3.3125 0 6-2.6875 6-6s-2.6875-6-6-6h-46.136718c-3.3125 0-6 2.6875-6 6s2.6875 6 6 6zm0 0"
     id="path20"
     style="fill:#8b0000;fill-opacity:1" />
  <path
     d="m208.660156 115.285156h3.800782c3.3125 0 6-2.6875 6-6s-2.6875-6-6-6h-3.800782c-3.316406 0-6 2.6875-6 6s2.683594 6 6 6zm0 0"
     id="path22"
     style="fill:#8b0000;fill-opacity:1" />
  <path
     d="m110.605469 213.089844c0 3.3125 2.6875 6 6 6h70.675781c3.3125 0 6-2.6875 6-6s-2.6875-6-6-6h-70.675781c-3.3125 0-6 2.6875-6 6zm0 0"
     id="path24"
     style="fill:#8b0000;fill-opacity:1" />
  <path
     d="m94.644531 219.089844c3.3125 0 6-2.6875 6-6s-2.6875-6-6-6h-7.886719c-3.3125 0-6 2.6875-6 6s2.6875 6 6 6zm0 0"
     id="path26"
     style="fill:#8b0000;fill-opacity:1" />
  <path
     d="m59.1875 219.089844h5.984375c3.3125 0 6-2.6875 6-6s-2.6875-6-6-6h-5.984375c-3.3125 0-6 2.6875-6 6s2.6875 6 6 6zm0 0"
     id="path28"
     style="fill:#8b0000;fill-opacity:1" />
</svg>
