<?xml version="1.0" encoding="UTF-8" standalone="no"?>
<!-- Created with Inkscape (http://www.inkscape.org/) -->

<svg
   xmlns:dc="http://purl.org/dc/elements/1.1/"
   xmlns:cc="http://creativecommons.org/ns#"
   xmlns:rdf="http://www.w3.org/1999/02/22-rdf-syntax-ns#"
   xmlns:svg="http://www.w3.org/2000/svg"
   xmlns="http://www.w3.org/2000/svg"
   xmlns:sodipodi="http://sodipodi.sourceforge.net/DTD/sodipodi-0.dtd"
   xmlns:inkscape="http://www.inkscape.org/namespaces/inkscape"
   width="1277.7791"
   height="360.96033"
   viewBox="0 0 338.07905 95.504089"
   version="1.1"
   id="svg8"
   inkscape:version="0.92.2 (5c3e80d, 2017-08-06)"
   sodipodi:docname="logo.svg"
   inkscape:export-filename="D:\Projects\Vanja dot2dot\Logo FInal\transaprent-red, 600x.png"
   inkscape:export-xdpi="43.764706"
   inkscape:export-ydpi="43.764706">
  <defs
     id="defs2" />
  <sodipodi:namedview
     id="base"
     pagecolor="#ffffff"
     bordercolor="#666666"
     borderopacity="1.0"
     inkscape:pageopacity="0.0"
     inkscape:pageshadow="2"
     inkscape:zoom="0.088388348"
     inkscape:cx="2854.0633"
     inkscape:cy="-23.459144"
     inkscape:document-units="mm"
     inkscape:current-layer="layer1"
     showgrid="true"
     showguides="true"
     inkscape:guide-bbox="true"
     gridtolerance="10"
     units="px"
     inkscape:window-width="1920"
     inkscape:window-height="1001"
     inkscape:window-x="-9"
     inkscape:window-y="-9"
     inkscape:window-maximized="1"
     showborder="true"
     inkscape:showpageshadow="false"
     fit-margin-top="0"
     fit-margin-left="0"
     fit-margin-right="0"
     fit-margin-bottom="0">
    <inkscape:grid
       type="xygrid"
       id="grid825"
       originx="-13.564004"
       originy="-2.309375" />
    <inkscape:grid
       type="xygrid"
       id="grid4516"
       originx="-13.564004"
       originy="-2.309375" />
    <sodipodi:guide
       position="45.702661,239.25521"
       orientation="1,0"
       id="guide4574"
       inkscape:locked="false" />
    <sodipodi:guide
       position="171.64434,92.940628"
       orientation="0,1"
       id="guide861"
       inkscape:locked="false" />
    <sodipodi:guide
       position="150.47767,18.857292"
       orientation="0,1"
       id="guide863"
       inkscape:locked="false" />
    <sodipodi:guide
       position="83.008915,62.513543"
       orientation="0,1"
       id="guide1523"
       inkscape:locked="false" />
    <sodipodi:guide
       position="76.394332,18.857292"
       orientation="0,1"
       id="guide1525"
       inkscape:locked="false" />
  </sodipodi:namedview>
  <metadata
     id="metadata5">
    <rdf:RDF>
      <cc:Work
         rdf:about="">
        <dc:format>image/svg+xml</dc:format>
        <dc:type
           rdf:resource="http://purl.org/dc/dcmitype/StillImage" />
        <dc:title></dc:title>
      </cc:Work>
    </rdf:RDF>
  </metadata>
  <g
     inkscape:label="Layer 1"
     inkscape:groupmode="layer"
     id="layer1"
     transform="translate(-13.564004,-199.18653)">
    <g
       aria-label=" anglist"
       transform="matrix(1.0594614,0,0,1.0594614,-51.186415,36.653144)"
       style="font-style:normal;font-variant:normal;font-weight:normal;font-stretch:normal;font-size:37.33333206px;line-height:1.25;font-family:Cotoris;-inkscape-font-specification:Cotoris;letter-spacing:0px;word-spacing:0px;fill:#000000;fill-opacity:1;stroke:none"
       id="flowRoot859">
      <path
         d="m 173.92,221.95533 c -1.728,1.728 -3.648,2.496 -5.952,2.496 -0.96,0 -1.92,-0.096 -2.784,-0.384 -0.96,-0.192 -2.016,-0.672 -3.168,-1.44 -1.152,-0.768 -2.112,-2.016 -2.784,-3.744 -0.768,-1.728 -1.056,-3.84 -1.056,-6.432 0,-1.44 0.096,-2.688 0.384,-3.648 0.192,-0.96 0.768,-1.824 1.536,-2.592 0.768,-0.768 1.536,-1.344 2.304,-1.728 0.768,-0.384 2.016,-0.768 3.84,-1.152 1.728,-0.288 3.456,-0.48 4.992,-0.672 1.536,-0.192 3.744,-0.384 6.624,-0.672 -0.192,3.84 -0.288,7.776 -0.288,11.808 0,4.896 0.192,8.448 0.672,10.752 h 5.952 c -0.864,-3.648 -1.248,-8.928 -1.248,-15.84 0,-0.96 0,-2.304 0.096,-4.224 0,-1.92 0.096,-3.264 0.096,-4.224 0,-5.184 -1.248,-9.12 -3.744,-11.712 -2.496,-2.496 -6.048,-3.84 -10.464,-3.84 -4.224,0 -8.448,0.96 -12.576,2.688 l 1.344,2.688 c 2.88,-2.592 6.336,-3.936 10.176,-3.936 6.72,0 10.08,4.608 10.08,13.632 v 1.056 c -9.6,0.288 -16.224,1.152 -19.968,2.688 -3.84,1.536 -5.664,4.704 -5.664,9.504 0,3.264 1.152,6.24 3.552,8.928 2.4,2.688 6.336,3.936 11.712,3.936 2.688,0 5.184,-0.672 7.392,-2.112 z"
         style="font-size:96px"
         id="path838"
         inkscape:connector-curvature="0" />
      <path
         d="m 204.016,224.54733 c -0.48,-5.952 -0.672,-12.384 -0.672,-19.296 0,-4.224 0.096,-8.544 0.288,-12.96 0.768,-1.44 2.208,-2.784 4.32,-4.128 2.112,-1.344 4.128,-2.016 6.144,-2.016 4.128,0 6.816,1.632 8.16,4.704 0.768,1.92 1.152,5.952 1.152,12 0,1.248 0,3.072 0,5.568 0,2.496 0.096,4.608 0.096,6.144 0,1.536 -0.096,3.264 -0.096,5.184 -0.096,1.92 -0.192,3.552 -0.384,4.8 h 6.72 c -0.384,-3.648 -0.576,-11.136 -0.576,-22.656 0,-5.952 -1.152,-10.368 -3.36,-13.056 -2.208,-2.688 -5.568,-4.128 -10.08,-4.128 -4.608,0 -8.736,1.632 -12.288,4.8 -0.192,-1.92 -0.384,-3.168 -0.384,-3.552 h -5.76 c 0.48,2.592 0.768,6.816 0.768,12.576 0,11.904 -0.192,20.544 -0.576,26.016 z"
         style="font-size:96px"
         id="path840"
         inkscape:connector-curvature="0" />
      <path
         d="m 257.0485,243.55533 c 6.72,0 11.712,-1.44 15.072,-4.32 3.36,-2.88 5.088,-6.048 5.088,-9.696 0,-6.912 -5.856,-10.368 -17.376,-10.368 -2.112,0 -3.744,0 -4.896,-0.096 -1.152,0 -2.688,-0.192 -4.512,-0.576 -1.92,-0.384 -3.264,-0.96 -4.224,-1.92 -0.96,-0.864 -1.344,-2.016 -1.344,-3.552 0,-2.112 0.864,-3.552 2.688,-4.128 2.496,1.536 5.568,2.304 9.12,2.304 3.264,0 6.048,-0.384 8.448,-1.152 2.304,-0.768 4.128,-1.92 5.28,-3.264 1.152,-1.344 2.016,-2.784 2.592,-4.224 0.48,-1.44 0.768,-2.976 0.768,-4.704 0,-4.8 -1.824,-8.544 -5.472,-11.04 0.96,-0.576 2.112,-0.96 3.36,-0.96 0.768,0 1.632,0.192 2.4,0.48 l 0.48,-2.784 c -2.592,0 -4.992,0.96 -7.2,2.688 -2.304,-1.152 -5.28,-1.824 -8.928,-1.824 -4.896,0 -8.832,1.152 -11.904,3.36 -3.072,2.208 -4.512,5.664 -4.512,10.272 0,4.32 1.344,7.584 4.224,9.792 -1.152,0.768 -2.208,1.92 -2.976,3.456 -0.864,1.536 -1.248,3.072 -1.248,4.608 0,3.648 1.92,6.048 5.76,7.2 -2.304,0.864 -4.128,2.208 -5.28,4.128 -1.152,1.92 -1.728,3.744 -1.728,5.664 0,2.016 0.48,3.744 1.632,5.28 1.056,1.536 2.496,2.592 4.224,3.36 1.728,0.768 3.552,1.248 5.28,1.536 1.728,0.384 3.456,0.48 5.184,0.48 z m 0.672,-19.392 c 5.184,0 8.928,0.672 11.232,1.824 2.304,1.152 3.456,2.976 3.456,5.472 0,2.88 -1.248,5.376 -3.744,7.584 -2.496,2.208 -6.336,3.264 -11.52,3.264 -4.224,0 -7.392,-0.864 -9.504,-2.592 -2.112,-1.728 -3.168,-4.032 -3.168,-6.912 0,-4.224 1.632,-7.296 4.992,-9.216 1.824,0.384 4.608,0.576 8.256,0.576 z m -10.464,-27.456 c 0,-2.976 0.768,-5.568 2.304,-7.776 1.536,-2.208 4.32,-3.36 8.256,-3.36 2.016,0 3.744,0.48 5.184,1.344 1.44,0.96 2.496,2.112 3.168,3.552 0.672,1.44 1.152,2.784 1.44,4.128 0.288,1.344 0.48,2.592 0.48,3.936 0,3.264 -0.864,6.048 -2.4,8.256 -1.632,2.304 -4.32,3.36 -7.968,3.36 -3.552,0 -6.144,-1.248 -7.872,-3.744 -1.728,-2.496 -2.592,-5.76 -2.592,-9.696 z"
         style="font-size:96px"
         id="path842"
         inkscape:connector-curvature="0" />
      <path
         d="m 286.5505,153.41133 c 0.192,18.624 0.384,31.104 0.384,37.632 0,12.48 -0.192,23.616 -0.48,33.504 h 6.336 c -0.576,-12.768 -0.768,-24.096 -0.768,-33.888 0,-8.64 0.192,-21.12 0.672,-37.248 z"
         style="font-size:96px"
         id="path844"
         inkscape:connector-curvature="0" />
      <path
         d="m 307.546,185.95533 c 0.384,3.264 0.576,9.12 0.576,17.568 0,8.544 -0.192,15.552 -0.576,21.024 h 6.144 c -0.384,-3.936 -0.48,-9.984 -0.48,-18.24 0,-10.176 0.192,-16.896 0.672,-20.352 z m 0,-9.504 c 0,0.96 0.288,1.728 0.864,2.304 0.576,0.576 1.344,0.864 2.304,0.864 0.864,0 1.632,-0.288 2.304,-0.864 0.576,-0.576 0.96,-1.344 0.96,-2.304 0,-0.864 -0.384,-1.632 -0.96,-2.304 -0.672,-0.576 -1.44,-0.96 -2.304,-0.96 -0.96,0 -1.728,0.384 -2.304,0.96 -0.576,0.672 -0.864,1.44 -0.864,2.304 z"
         style="font-size:96px"
         id="path846"
         inkscape:connector-curvature="0" />
      <path
         d="m 351.106,193.82733 c -0.384,-2.976 -1.536,-5.28 -3.552,-6.816 -2.112,-1.536 -4.704,-2.304 -7.872,-2.304 -4.032,0 -7.008,0.96 -9.12,2.784 -2.112,1.824 -3.072,4.128 -3.072,6.816 0,2.4 0.576,4.512 1.824,6.24 1.248,1.728 2.784,3.168 4.608,4.224 1.728,1.152 3.552,2.208 5.376,3.168 1.824,1.056 3.36,2.304 4.608,3.84 1.248,1.536 1.92,3.264 1.92,5.28 0,2.784 -0.672,4.704 -1.92,5.76 -1.344,1.152 -3.168,1.632 -5.664,1.632 -2.4,0 -4.32,-0.864 -5.856,-2.688 -1.536,-1.824 -2.592,-4.032 -3.072,-6.624 l -4.032,1.44 c 0.576,2.88 2.016,5.088 4.128,6.816 2.112,1.728 4.992,2.496 8.544,2.496 4.224,0 7.488,-0.864 9.792,-2.688 2.304,-1.824 3.456,-4.416 3.456,-7.68 0,-2.592 -0.672,-4.896 -2.016,-6.816 -1.344,-1.92 -2.88,-3.36 -4.704,-4.512 -1.92,-1.056 -3.744,-2.112 -5.664,-3.072 -1.92,-0.96 -3.456,-2.112 -4.8,-3.456 -1.344,-1.344 -1.92,-2.88 -1.92,-4.8 0,-4.608 2.4,-6.912 7.392,-6.912 2.304,0 4.032,0.672 5.28,2.016 1.152,1.344 2.016,3.552 2.4,6.528 z"
         style="font-size:96px"
         id="path848"
         inkscape:connector-curvature="0" />
      <path
         d="m 361.213,187.68333 c 0.384,0 1.152,-0.096 2.304,-0.096 0,2.304 -0.096,6.528 -0.096,12.576 -0.096,6.048 -0.096,9.888 -0.096,11.424 0,8.736 2.88,13.344 8.736,13.824 2.88,0.288 5.568,-0.384 8.16,-2.016 l -1.152,-2.016 c -1.92,1.92 -3.744,2.88 -5.568,2.688 -1.632,-0.096 -2.784,-0.96 -3.552,-2.592 -0.768,-1.632 -1.152,-4.416 -1.152,-8.448 -0.192,-10.56 -0.192,-19.104 0,-25.536 1.728,0 4.224,0.096 7.488,0.192 l 0.384,-2.112 c -2.304,0.288 -4.992,0.384 -7.872,0.384 0.096,-6.432 0.288,-10.848 0.576,-13.344 l -5.76,0.96 c 0,5.184 -0.096,9.312 -0.096,12.384 -0.864,0 -1.632,0 -2.208,-0.192 z"
         style="font-size:96px"
         id="path850"
         inkscape:connector-curvature="0" />
    </g>
    <g
       aria-label="tr"
       transform="matrix(1.0594614,0,0,1.0594614,-117.04163,37.027322)"
       style="font-style:normal;font-variant:normal;font-weight:normal;font-stretch:normal;font-size:37.33333206px;line-height:1.25;font-family:Cotoris;-inkscape-font-specification:Cotoris;letter-spacing:0px;word-spacing:0px;fill:#000000;fill-opacity:1;stroke:none"
       id="flowRoot815">
      <path
         d="m 123.2755,187.68333 c 0.384,0 1.152,-0.096 2.304,-0.096 0,2.304 -0.096,6.528 -0.096,12.576 -0.096,6.048 -0.096,9.888 -0.096,11.424 0,8.736 2.88,13.344 8.736,13.824 2.88,0.288 5.568,-0.384 8.16,-2.016 l -1.152,-2.016 c -1.92,1.92 -3.744,2.88 -5.568,2.688 -1.632,-0.096 -2.784,-0.96 -3.552,-2.592 -0.768,-1.632 -1.152,-4.416 -1.152,-8.448 -0.192,-10.56 -0.192,-19.104 0,-25.536 1.728,0 4.224,0.096 7.488,0.192 l 0.384,-2.112 c -2.304,0.288 -4.992,0.384 -7.872,0.384 0.096,-6.432 0.288,-10.848 0.576,-13.344 l -5.76,0.96 c 0,5.184 -0.096,9.312 -0.096,12.384 -0.864,0 -1.632,0 -2.208,-0.192 z"
         style="font-size:96px"
         id="path833"
         inkscape:connector-curvature="0" />
      <path
         d="m 155.998,199.97133 c 0,-5.184 0.576,-8.736 1.92,-10.848 1.248,-2.112 3.072,-3.168 5.568,-3.168 0.672,0 1.536,0.288 2.592,0.864 0.96,0.576 1.728,1.248 2.112,2.016 l 1.344,-2.592 c -1.728,-0.96 -3.648,-1.44 -5.952,-1.44 -3.744,0 -6.528,1.632 -8.448,4.704 -0.192,-1.92 -0.288,-3.168 -0.384,-3.552 h -4.704 c 0.384,6.72 0.672,11.232 0.768,13.632 0.288,11.04 0.192,19.392 -0.384,24.96 h 6.432 c -0.576,-5.184 -0.864,-13.344 -0.864,-24.576 z"
         style="font-size:96px"
         id="path835"
         inkscape:connector-curvature="0" />
    </g>
    <path
       style="opacity:1;fill:#8b0000;fill-opacity:1;stroke:none;stroke-width:13.69501591;stroke-miterlimit:4;stroke-dasharray:none;stroke-opacity:1"
       d="m 247.23633,1115.6289 c 10.05846,30.909 11.48256,42.2974 19.16601,64.3301 h -0.008 l 35.91602,100.9238 26.57031,-63.7539 h 0.0176 l 38.21289,-91.7168 3.97265,-9.7832 H 353.16797 L 346,1132.8574 l -2.50391,6.168 -24.09179,57.8203 h -0.01 L 302.64258,1237.0391 280,1173.4121 h 0.004 c -4.84393,-13.8902 -5.74083,-21.0685 -12.08203,-40.5547 h 44.6914 l 0.81055,-1.9472 6.20703,-15.2813 z"
       transform="matrix(0.26458333,0,0,0.26458333,0,-63)"
       id="path4560"
       inkscape:export-xdpi="16.941177"
       inkscape:export-ydpi="16.941177"
       inkscape:connector-curvature="0" />
    <path
       style="opacity:1;fill:#8b0000;fill-opacity:1;stroke:none;stroke-width:3.62347317;stroke-miterlimit:4;stroke-dasharray:none;stroke-opacity:1"
       d="m 103.1875,232.17707 -1.05111,2.58847 -10.110507,24.26674 h -0.005 l -13.943848,33.45638 h 5.037938 l 25.099607,-60.31159 z"
       id="path829"
       inkscape:connector-curvature="0"
       sodipodi:nodetypes="cccccccc"
       inkscape:export-xdpi="16.941177"
       inkscape:export-ydpi="16.941177" />
    <flowRoot
       xml:space="preserve"
       id="flowRoot845"
       style="font-style:normal;font-weight:normal;font-size:37.33333206px;line-height:1.25;font-family:sans-serif;letter-spacing:0px;word-spacing:0px;fill:#000000;fill-opacity:1;stroke:none"><flowRegion
         id="flowRegion847"><rect
           id="rect849"
           width="360"
           height="100"
           x="360"
           y="1020.6299" /></flowRegion><flowPara
         id="flowPara851" /></flowRoot>  </g>
</svg>
